<svg width="200" height="60" viewBox="0 0 200 60" fill="none" xmlns="http://www.w3.org/2000/svg">
<rect width="60" height="60" rx="7" fill="#002333"/>
<g filter="url(#filter0_d_0_5)">
<mask id="path-2-outside-1_0_5" maskUnits="userSpaceOnUse" x="4" y="17" width="52" height="26" fill="black">
<rect fill="white" x="4" y="17" width="52" height="26"/>
<path d="M17.536 41.448C15.744 41.448 14.0907 41.16 12.576 40.584C11.0613 40.008 9.73867 39.1973 8.608 38.152C7.49867 37.0853 6.63467 35.848 6.016 34.44C5.39733 33.032 5.088 31.4853 5.088 29.8C5.088 28.1147 5.39733 26.568 6.016 25.16C6.63467 23.752 7.49867 22.5253 8.608 21.48C9.73867 20.4133 11.0613 19.592 12.576 19.016C14.0907 18.44 15.744 18.152 17.536 18.152C19.3493 18.152 21.0027 18.44 22.496 19.016C24.0107 19.592 25.3227 20.4133 26.432 21.48C27.5413 22.5253 28.4053 23.752 29.024 25.16C29.664 26.568 29.984 28.1147 29.984 29.8C29.984 31.4853 29.664 33.0427 29.024 34.472C28.4053 35.88 27.5413 37.1067 26.432 38.152C25.3227 39.1973 24.0107 40.008 22.496 40.584C21.0027 41.16 19.3493 41.448 17.536 41.448ZM17.536 36.2C18.3893 36.2 19.1787 36.0507 19.904 35.752C20.6507 35.4533 21.2907 35.0267 21.824 34.472C22.3787 33.896 22.8053 33.2133 23.104 32.424C23.424 31.6347 23.584 30.76 23.584 29.8C23.584 28.8187 23.424 27.944 23.104 27.176C22.8053 26.3867 22.3787 25.7147 21.824 25.16C21.2907 24.584 20.6507 24.1467 19.904 23.848C19.1787 23.5493 18.3893 23.4 17.536 23.4C16.6827 23.4 15.8827 23.5493 15.136 23.848C14.4107 24.1467 13.7707 24.584 13.216 25.16C12.6827 25.7147 12.256 26.3867 11.936 27.176C11.6373 27.944 11.488 28.8187 11.488 29.8C11.488 30.76 11.6373 31.6347 11.936 32.424C12.256 33.2133 12.6827 33.896 13.216 34.472C13.7707 35.0267 14.4107 35.4533 15.136 35.752C15.8827 36.0507 16.6827 36.2 17.536 36.2ZM48.2785 18.6H54.6145V41H48.2785V18.6ZM39.6385 41H33.3025V18.6H39.6385V41ZM48.7265 32.264H39.1905V27.016H48.7265V32.264Z"/>
</mask>
<path d="M17.536 41.448C15.744 41.448 14.0907 41.16 12.576 40.584C11.0613 40.008 9.73867 39.1973 8.608 38.152C7.49867 37.0853 6.63467 35.848 6.016 34.44C5.39733 33.032 5.088 31.4853 5.088 29.8C5.088 28.1147 5.39733 26.568 6.016 25.16C6.63467 23.752 7.49867 22.5253 8.608 21.48C9.73867 20.4133 11.0613 19.592 12.576 19.016C14.0907 18.44 15.744 18.152 17.536 18.152C19.3493 18.152 21.0027 18.44 22.496 19.016C24.0107 19.592 25.3227 20.4133 26.432 21.48C27.5413 22.5253 28.4053 23.752 29.024 25.16C29.664 26.568 29.984 28.1147 29.984 29.8C29.984 31.4853 29.664 33.0427 29.024 34.472C28.4053 35.88 27.5413 37.1067 26.432 38.152C25.3227 39.1973 24.0107 40.008 22.496 40.584C21.0027 41.16 19.3493 41.448 17.536 41.448ZM17.536 36.2C18.3893 36.2 19.1787 36.0507 19.904 35.752C20.6507 35.4533 21.2907 35.0267 21.824 34.472C22.3787 33.896 22.8053 33.2133 23.104 32.424C23.424 31.6347 23.584 30.76 23.584 29.8C23.584 28.8187 23.424 27.944 23.104 27.176C22.8053 26.3867 22.3787 25.7147 21.824 25.16C21.2907 24.584 20.6507 24.1467 19.904 23.848C19.1787 23.5493 18.3893 23.4 17.536 23.4C16.6827 23.4 15.8827 23.5493 15.136 23.848C14.4107 24.1467 13.7707 24.584 13.216 25.16C12.6827 25.7147 12.256 26.3867 11.936 27.176C11.6373 27.944 11.488 28.8187 11.488 29.8C11.488 30.76 11.6373 31.6347 11.936 32.424C12.256 33.2133 12.6827 33.896 13.216 34.472C13.7707 35.0267 14.4107 35.4533 15.136 35.752C15.8827 36.0507 16.6827 36.2 17.536 36.2ZM48.2785 18.6H54.6145V41H48.2785V18.6ZM39.6385 41H33.3025V18.6H39.6385V41ZM48.7265 32.264H39.1905V27.016H48.7265V32.264Z" fill="white"/>
<path d="M12.576 40.584L12.2206 41.5187L12.576 40.584ZM8.608 38.152L7.91489 38.8728L7.92195 38.8796L7.92915 38.8863L8.608 38.152ZM6.016 34.44L5.10048 34.8423L6.016 34.44ZM6.016 25.16L5.10048 24.7577V24.7577L6.016 25.16ZM8.608 21.48L9.2938 22.2078L9.29422 22.2074L8.608 21.48ZM12.576 19.016L12.2206 18.0813L12.576 19.016ZM22.496 19.016L22.1361 19.949L22.1406 19.9507L22.496 19.016ZM26.432 21.48L25.7389 22.2009L25.7462 22.2078L26.432 21.48ZM29.024 25.16L28.1084 25.5623L28.1136 25.5738L29.024 25.16ZM29.024 34.472L28.1113 34.0633L28.1085 34.0697L29.024 34.472ZM26.432 38.152L27.1178 38.8798L26.432 38.152ZM22.496 40.584L22.1405 39.6493L22.1361 39.651L22.496 40.584ZM19.904 35.752L19.5326 34.8235L19.5233 34.8273L19.904 35.752ZM21.824 34.472L21.1037 33.7784L21.1032 33.7789L21.824 34.472ZM23.104 32.424L22.1773 32.0483L22.1729 32.0592L22.1687 32.0701L23.104 32.424ZM23.104 27.176L22.1687 27.5299L22.1746 27.5454L22.1809 27.5606L23.104 27.176ZM21.824 25.16L21.0902 25.8394L21.1033 25.8535L21.1169 25.8671L21.824 25.16ZM19.904 23.848L19.5232 24.7727L19.5326 24.7765L19.904 23.848ZM15.136 23.848L14.7646 22.9195L14.7553 22.9233L15.136 23.848ZM13.216 25.16L12.4957 24.4664L12.4952 24.4669L13.216 25.16ZM11.936 27.176L11.0093 26.8003L11.0066 26.8069L11.004 26.8136L11.936 27.176ZM11.936 32.424L11.0007 32.7779L11.0049 32.7888L11.0093 32.7997L11.936 32.424ZM13.216 34.472L12.4822 35.1514L12.4953 35.1655L12.5089 35.1791L13.216 34.472ZM15.136 35.752L14.7552 36.6767L14.7646 36.6805L15.136 35.752ZM17.536 40.448C15.8526 40.448 14.3212 40.1778 12.9314 39.6493L12.2206 41.5187C13.8602 42.1422 15.6354 42.448 17.536 42.448V40.448ZM12.9314 39.6493C11.5301 39.1164 10.3187 38.3717 9.28686 37.4177L7.92915 38.8863C9.15866 40.023 10.5926 40.8996 12.2206 41.5187L12.9314 39.6493ZM9.30111 37.4312C8.28596 36.4551 7.49755 35.3259 6.93152 34.0377L5.10048 34.8423C5.77178 36.3701 6.71137 37.7156 7.91489 38.8728L9.30111 37.4312ZM6.93152 34.0377C6.37371 32.7682 6.088 31.3602 6.088 29.8H4.088C4.088 31.6104 4.42096 33.2958 5.10048 34.8423L6.93152 34.0377ZM6.088 29.8C6.088 28.2398 6.37371 26.8318 6.93152 25.5623L5.10048 24.7577C4.42096 26.3042 4.088 27.9896 4.088 29.8H6.088ZM6.93152 25.5623C7.49672 24.276 8.283 23.1603 9.2938 22.2078L7.9222 20.7522C6.71434 21.8904 5.77261 23.228 5.10048 24.7577L6.93152 25.5623ZM9.29422 22.2074C10.3253 21.2347 11.5343 20.482 12.9314 19.9507L12.2206 18.0813C10.5884 18.702 9.15207 19.592 7.92178 20.7526L9.29422 22.2074ZM12.9314 19.9507C14.3212 19.4222 15.8526 19.152 17.536 19.152V17.152C15.6354 17.152 13.8602 17.4578 12.2206 18.0813L12.9314 19.9507ZM17.536 19.152C19.2425 19.152 20.7718 19.4228 22.1361 19.949L22.8559 18.083C21.2335 17.4572 19.4562 17.152 17.536 17.152V19.152ZM22.1406 19.9507C23.5362 20.4814 24.7317 21.2323 25.7389 22.2008L27.1251 20.7592C25.9137 19.5943 24.4851 18.7026 22.8514 18.0813L22.1406 19.9507ZM25.7462 22.2078C26.757 23.1603 27.5433 24.276 28.1085 25.5623L29.9395 24.7577C29.2674 23.228 28.3257 21.8904 27.1178 20.7522L25.7462 22.2078ZM28.1136 25.5738C28.6894 26.8405 28.984 28.2445 28.984 29.8H30.984C30.984 27.9849 30.6386 26.2955 29.9344 24.7462L28.1136 25.5738ZM28.984 29.8C28.984 31.3554 28.6895 32.7721 28.1113 34.0633L29.9367 34.8807C30.6385 33.3132 30.984 31.6153 30.984 29.8H28.984ZM28.1085 34.0697C27.5433 35.356 26.757 36.4717 25.7462 37.4242L27.1178 38.8798C28.3257 37.7416 29.2674 36.404 29.9395 34.8743L28.1085 34.0697ZM25.7462 37.4242C24.7383 38.374 23.5404 39.117 22.1406 39.6493L22.8514 41.5187C24.4809 40.899 25.9071 40.0207 27.1178 38.8798L25.7462 37.4242ZM22.1361 39.651C20.7718 40.1772 19.2425 40.448 17.536 40.448V42.448C19.4562 42.448 21.2335 42.1428 22.8559 41.517L22.1361 39.651ZM17.536 37.2C18.5084 37.2 19.4284 37.0293 20.2847 36.6767L19.5233 34.8273C18.9289 35.072 18.2703 35.2 17.536 35.2V37.2ZM20.2754 36.6805C21.1478 36.3315 21.9086 35.8268 22.5448 35.1651L21.1032 33.7789C20.6727 34.2266 20.1535 34.5752 19.5326 34.8235L20.2754 36.6805ZM22.5443 35.1656C23.1981 34.4868 23.6954 33.6867 24.0393 32.7779L22.1687 32.0701C21.9153 32.7399 21.5593 33.3052 21.1037 33.7784L22.5443 35.1656ZM24.0307 32.7997C24.4049 31.8768 24.584 30.8725 24.584 29.8H22.584C22.584 30.6475 22.4431 31.3925 22.1773 32.0483L24.0307 32.7997ZM24.584 29.8C24.584 28.71 24.4061 27.7011 24.0271 26.7914L22.1809 27.5606C22.4419 28.1869 22.584 28.9274 22.584 29.8H24.584ZM24.0393 26.8221C23.6943 25.9104 23.1935 25.1152 22.5311 24.4529L21.1169 25.8671C21.5639 26.3141 21.9163 26.8629 22.1687 27.5299L24.0393 26.8221ZM22.5578 24.4806C21.9211 23.793 21.1564 23.2719 20.2754 22.9195L19.5326 24.7765C20.145 25.0214 20.6602 25.375 21.0902 25.8394L22.5578 24.4806ZM20.2847 22.9233C19.4284 22.5707 18.5084 22.4 17.536 22.4V24.4C18.2703 24.4 18.9289 24.528 19.5233 24.7727L20.2847 22.9233ZM17.536 22.4C16.5633 22.4 15.6365 22.5708 14.7646 22.9195L15.5074 24.7765C16.1288 24.5279 16.802 24.4 17.536 24.4V22.4ZM14.7553 22.9233C13.8994 23.2757 13.1444 23.7927 12.4957 24.4664L13.9363 25.8536C14.3969 25.3753 14.9219 25.0176 15.5168 24.7727L14.7553 22.9233ZM12.4952 24.4669C11.8647 25.1226 11.372 25.9056 11.0093 26.8003L12.8627 27.5517C13.14 26.8677 13.5007 26.3067 13.9368 25.8531L12.4952 24.4669ZM11.004 26.8136C10.6527 27.7169 10.488 28.7178 10.488 29.8H12.488C12.488 28.9195 12.622 28.1711 12.868 27.5384L11.004 26.8136ZM10.488 29.8C10.488 30.8644 10.6538 31.861 11.0007 32.7779L12.8713 32.0701C12.6209 31.4083 12.488 30.6556 12.488 29.8H10.488ZM11.0093 32.7997C11.3708 33.6915 11.86 34.4794 12.4822 35.1514L13.9498 33.7926C13.5053 33.3126 13.1412 32.7351 12.8627 32.0483L11.0093 32.7997ZM12.5089 35.1791C13.1569 35.8271 13.9078 36.3277 14.7553 36.6767L15.5168 34.8273C14.9135 34.5789 14.3844 34.2262 13.9231 33.7649L12.5089 35.1791ZM14.7646 36.6805C15.6365 37.0292 16.5633 37.2 17.536 37.2V35.2C16.802 35.2 16.1288 35.0721 15.5074 34.8235L14.7646 36.6805ZM48.2785 18.6V17.6H47.2785V18.6H48.2785ZM54.6145 18.6H55.6145V17.6H54.6145V18.6ZM54.6145 41V42H55.6145V41H54.6145ZM48.2785 41H47.2785V42H48.2785V41ZM39.6385 41V42H40.6385V41H39.6385ZM33.3025 41H32.3025V42H33.3025V41ZM33.3025 18.6V17.6H32.3025V18.6H33.3025ZM39.6385 18.6H40.6385V17.6H39.6385V18.6ZM48.7265 32.264V33.264H49.7265V32.264H48.7265ZM39.1905 32.264H38.1905V33.264H39.1905V32.264ZM39.1905 27.016V26.016H38.1905V27.016H39.1905ZM48.7265 27.016H49.7265V26.016H48.7265V27.016ZM48.2785 19.6H54.6145V17.6H48.2785V19.6ZM53.6145 18.6V41H55.6145V18.6H53.6145ZM54.6145 40H48.2785V42H54.6145V40ZM49.2785 41V18.6H47.2785V41H49.2785ZM39.6385 40H33.3025V42H39.6385V40ZM34.3025 41V18.6H32.3025V41H34.3025ZM33.3025 19.6H39.6385V17.6H33.3025V19.6ZM38.6385 18.6V41H40.6385V18.6H38.6385ZM48.7265 31.264H39.1905V33.264H48.7265V31.264ZM40.1905 32.264V27.016H38.1905V32.264H40.1905ZM39.1905 28.016H48.7265V26.016H39.1905V28.016ZM47.7265 27.016V32.264H49.7265V27.016H47.7265Z" fill="black" mask="url(#path-2-outside-1_0_5)"/>
</g>
<path d="M78.176 42.384C76.816 42.384 75.552 42.168 74.384 41.736C73.232 41.304 72.232 40.696 71.384 39.912C70.536 39.112 69.872 38.176 69.392 37.104C68.928 36.032 68.696 34.864 68.696 33.6C68.696 32.32 68.928 31.152 69.392 30.096C69.872 29.024 70.536 28.096 71.384 27.312C72.232 26.512 73.232 25.896 74.384 25.464C75.552 25.032 76.816 24.816 78.176 24.816C79.552 24.816 80.816 25.032 81.968 25.464C83.12 25.896 84.12 26.512 84.968 27.312C85.816 28.096 86.472 29.024 86.936 30.096C87.416 31.152 87.656 32.32 87.656 33.6C87.656 34.864 87.416 36.032 86.936 37.104C86.472 38.176 85.816 39.112 84.968 39.912C84.12 40.696 83.12 41.304 81.968 41.736C80.816 42.168 79.552 42.384 78.176 42.384ZM78.176 37.8C78.704 37.8 79.192 37.704 79.64 37.512C80.104 37.32 80.504 37.048 80.84 36.696C81.192 36.328 81.464 35.888 81.656 35.376C81.848 34.848 81.944 34.256 81.944 33.6C81.944 32.944 81.848 32.36 81.656 31.848C81.464 31.32 81.192 30.88 80.84 30.528C80.504 30.16 80.104 29.88 79.64 29.688C79.192 29.496 78.704 29.4 78.176 29.4C77.648 29.4 77.152 29.496 76.688 29.688C76.24 29.88 75.84 30.16 75.488 30.528C75.152 30.88 74.888 31.32 74.696 31.848C74.504 32.36 74.408 32.944 74.408 33.6C74.408 34.256 74.504 34.848 74.696 35.376C74.888 35.888 75.152 36.328 75.488 36.696C75.84 37.048 76.24 37.32 76.688 37.512C77.152 37.704 77.648 37.8 78.176 37.8ZM95.9969 42.24C94.1889 42.24 92.7809 41.808 91.7729 40.944C90.7649 40.064 90.2609 38.72 90.2609 36.912V25.92H95.6849V36.864C95.6849 37.264 95.7889 37.576 95.9969 37.8C96.2209 38.024 96.4929 38.136 96.8129 38.136C97.2769 38.136 97.6849 38.016 98.0369 37.776L99.3329 41.544C98.9169 41.784 98.4129 41.96 97.8209 42.072C97.2449 42.184 96.6369 42.24 95.9969 42.24ZM88.4609 33.552V29.592H98.3729V33.552H88.4609ZM108.644 42V39.672L108.26 39.048V34.632C108.26 33.992 108.06 33.504 107.66 33.168C107.276 32.832 106.644 32.664 105.764 32.664C105.172 32.664 104.572 32.76 103.964 32.952C103.356 33.128 102.836 33.376 102.404 33.696L100.676 30.12C101.444 29.64 102.364 29.272 103.436 29.016C104.508 28.76 105.556 28.632 106.58 28.632C108.836 28.632 110.58 29.136 111.812 30.144C113.06 31.152 113.684 32.752 113.684 34.944V42H108.644ZM104.924 42.24C103.852 42.24 102.956 42.056 102.236 41.688C101.516 41.32 100.972 40.832 100.604 40.224C100.236 39.6 100.052 38.912 100.052 38.16C100.052 37.312 100.268 36.592 100.7 36C101.132 35.408 101.788 34.96 102.668 34.656C103.564 34.352 104.692 34.2 106.052 34.2H108.788V36.816H106.916C106.34 36.816 105.916 36.912 105.644 37.104C105.388 37.28 105.26 37.552 105.26 37.92C105.26 38.224 105.372 38.48 105.596 38.688C105.836 38.88 106.156 38.976 106.556 38.976C106.924 38.976 107.26 38.88 107.564 38.688C107.884 38.48 108.116 38.16 108.26 37.728L108.956 39.336C108.748 40.312 108.308 41.04 107.636 41.52C106.964 42 106.06 42.24 104.924 42.24ZM120.564 39.84L120.684 33.456L125.22 28.872H131.628L125.628 35.16L122.916 37.344L120.564 39.84ZM116.028 42V24.192H121.452V42H116.028ZM125.508 42L121.908 37.44L125.244 33.336L132.06 42H125.508ZM138.375 42.24C137.335 42.24 136.391 42.032 135.543 41.616C134.711 41.184 134.055 40.52 133.575 39.624C133.095 38.712 132.855 37.544 132.855 36.12V28.872H138.279V35.184C138.279 36.112 138.431 36.76 138.735 37.128C139.039 37.496 139.455 37.68 139.983 37.68C140.303 37.68 140.599 37.6 140.871 37.44C141.159 37.264 141.391 36.984 141.567 36.6C141.743 36.2 141.831 35.68 141.831 35.04V28.872H147.255V42H142.095V38.208L143.127 39.24C142.663 40.264 141.999 41.024 141.135 41.52C140.287 42 139.367 42.24 138.375 42.24ZM160.725 25.2H166.389V42H160.725V25.2ZM155.493 42H149.829V25.2H155.493V42ZM161.109 35.808H155.109V31.152H161.109V35.808ZM176.894 42V39.672L176.51 39.048V34.632C176.51 33.992 176.31 33.504 175.91 33.168C175.526 32.832 174.894 32.664 174.014 32.664C173.422 32.664 172.822 32.76 172.214 32.952C171.606 33.128 171.086 33.376 170.654 33.696L168.926 30.12C169.694 29.64 170.614 29.272 171.686 29.016C172.758 28.76 173.806 28.632 174.83 28.632C177.086 28.632 178.83 29.136 180.062 30.144C181.31 31.152 181.934 32.752 181.934 34.944V42H176.894ZM173.174 42.24C172.102 42.24 171.206 42.056 170.486 41.688C169.766 41.32 169.222 40.832 168.854 40.224C168.486 39.6 168.302 38.912 168.302 38.16C168.302 37.312 168.518 36.592 168.95 36C169.382 35.408 170.038 34.96 170.918 34.656C171.814 34.352 172.942 34.2 174.302 34.2H177.038V36.816H175.166C174.59 36.816 174.166 36.912 173.894 37.104C173.638 37.28 173.51 37.552 173.51 37.92C173.51 38.224 173.622 38.48 173.846 38.688C174.086 38.88 174.406 38.976 174.806 38.976C175.174 38.976 175.51 38.88 175.814 38.688C176.134 38.48 176.366 38.16 176.51 37.728L177.206 39.336C176.998 40.312 176.558 41.04 175.886 41.52C175.214 42 174.31 42.24 173.174 42.24ZM193.038 42.24C191.838 42.24 190.87 42 190.134 41.52C189.398 41.04 188.862 40.296 188.526 39.288C188.206 38.28 188.046 36.992 188.046 35.424C188.046 33.872 188.222 32.6 188.574 31.608C188.926 30.6 189.47 29.856 190.206 29.376C190.958 28.88 191.902 28.632 193.038 28.632C194.19 28.632 195.246 28.904 196.206 29.448C197.166 29.992 197.934 30.776 198.51 31.8C199.086 32.808 199.374 34.016 199.374 35.424C199.374 36.832 199.086 38.048 198.51 39.072C197.934 40.08 197.166 40.864 196.206 41.424C195.246 41.968 194.19 42.24 193.038 42.24ZM184.278 42V24.192H189.702V30.624L189.462 35.424L189.438 40.224V42H184.278ZM191.742 38.016C192.142 38.016 192.502 37.92 192.822 37.728C193.142 37.536 193.398 37.248 193.59 36.864C193.782 36.464 193.878 35.984 193.878 35.424C193.878 34.848 193.782 34.376 193.59 34.008C193.398 33.624 193.142 33.336 192.822 33.144C192.502 32.952 192.142 32.856 191.742 32.856C191.342 32.856 190.982 32.952 190.662 33.144C190.342 33.336 190.086 33.624 189.894 34.008C189.702 34.376 189.606 34.848 189.606 35.424C189.606 35.984 189.702 36.464 189.894 36.864C190.086 37.248 190.342 37.536 190.662 37.728C190.982 37.92 191.342 38.016 191.742 38.016Z" fill="white"/>
<defs>
<filter id="filter0_d_0_5" x="1.08801" y="18.1521" width="57.5265" height="31.2959" filterUnits="userSpaceOnUse" color-interpolation-filters="sRGB">
<feFlood flood-opacity="0" result="BackgroundImageFix"/>
<feColorMatrix in="SourceAlpha" type="matrix" values="0 0 0 0 0 0 0 0 0 0 0 0 0 0 0 0 0 0 127 0" result="hardAlpha"/>
<feOffset dy="4"/>
<feGaussianBlur stdDeviation="2"/>
<feComposite in2="hardAlpha" operator="out"/>
<feColorMatrix type="matrix" values="0 0 0 0 0 0 0 0 0 0 0 0 0 0 0 0 0 0 0.25 0"/>
<feBlend mode="normal" in2="BackgroundImageFix" result="effect1_dropShadow_0_5"/>
<feBlend mode="normal" in="SourceGraphic" in2="effect1_dropShadow_0_5" result="shape"/>
</filter>
</defs>
</svg>
