<svg width="1440" height="468" viewBox="0 0 1440 468" fill="none" xmlns="http://www.w3.org/2000/svg">
<rect x="114.401" y="70" width="50" height="50" rx="7" transform="rotate(52 114.401 70)" fill="black"/>
<rect x="112.332" y="86.8441" width="25" height="25" rx="7" transform="rotate(52 112.332 86.8441)" fill="#267491"/>
<g filter="url(#filter0_f_2003_5)">
<rect x="46.0895" y="374.73" width="50" height="50" rx="7" transform="rotate(112 46.0895 374.73)" fill="black"/>
<rect x="37.9533" y="378.184" width="37.5" height="37.5" rx="7" transform="rotate(112 37.9533 378.184)" fill="#082D3A"/>
<rect x="29.1663" y="381.914" width="24" height="24" rx="6.5" transform="rotate(112 29.1663 381.914)" fill="white" stroke="black"/>
<rect x="21.6809" y="385.091" width="12.5" height="12.5" rx="6.25" transform="rotate(112 21.6809 385.091)" fill="#267491"/>
</g>
<rect x="1316.45" width="50" height="50" rx="7" transform="rotate(54 1316.45 0)" fill="white"/>
<rect x="1313.8" y="16.7616" width="25" height="25" rx="7" transform="rotate(54 1313.8 16.7616)" fill="#267491"/>
<rect x="1430.74" y="397" width="50" height="50" rx="7" transform="rotate(49 1430.74 397)" fill="white"/>
<rect x="1429.55" y="413.929" width="25" height="25" rx="7" transform="rotate(49 1429.55 413.929)" fill="#082D3A"/>
<defs>
<filter id="filter0_f_2003_5" x="-20.8893" y="354.111" width="68.8682" height="68.8682" filterUnits="userSpaceOnUse" color-interpolation-filters="sRGB">
<feFlood flood-opacity="0" result="BackgroundImageFix"/>
<feBlend mode="normal" in="SourceGraphic" in2="BackgroundImageFix" result="shape"/>
<feGaussianBlur stdDeviation="2" result="effect1_foregroundBlur_2003_5"/>
</filter>
</defs>
</svg>
